<svg width="20" height="25" viewBox="0 0 20 25" fill="none" xmlns="http://www.w3.org/2000/svg">
<path d="M10.3157 24.5C11.6696 24.5 12.7773 23.3923 12.7773 22.0385H7.85418C7.85418 23.3923 8.94956 24.5 10.3157 24.5ZM17.7003 17.1154V10.9615C17.7003 7.18308 15.6819 4.02 12.1619 3.18308V2.34615C12.1619 1.32462 11.3373 0.5 10.3157 0.5C9.29418 0.5 8.46956 1.32462 8.46956 2.34615V3.18308C4.93726 4.02 2.9311 7.17077 2.9311 10.9615V17.1154L1.34341 18.7031C0.568026 19.4785 1.10956 20.8077 2.20495 20.8077H18.4142C19.5096 20.8077 20.0634 19.4785 19.288 18.7031L17.7003 17.1154Z" fill="#F9F9F9"/>
</svg>
