<svg width="50" height="50" viewBox="0 0 50 50" fill="none" xmlns="http://www.w3.org/2000/svg">
<path d="M37.5 0H12.5C9.75 0 7.5 2.25 7.5 5V10C7.5 12.75 9.75 15 12.5 15H37.5C40.25 15 42.5 12.75 42.5 10V5C42.5 2.25 40.25 0 37.5 0ZM36.25 10H13.75C13.05 10 12.5 9.45 12.5 8.75V6.25C12.5 5.55 13.05 5 13.75 5H36.25C36.95 5 37.5 5.55 37.5 6.25V8.75C37.5 9.45 36.95 10 36.25 10ZM45 50H5C2.25 50 0 47.75 0 45V42.5H50V45C50 47.75 47.75 50 45 50ZM41.325 20.475C40.525 18.675 38.725 17.5 36.75 17.5H13.25C11.275 17.5 9.475 18.675 8.675 20.475L0 40H50L41.325 20.475ZM18.75 35H16.25C15.55 35 15 34.45 15 33.75C15 33.05 15.55 32.5 16.25 32.5H18.75C19.45 32.5 20 33.05 20 33.75C20 34.45 19.45 35 18.75 35ZM18.75 30H16.25C15.55 30 15 29.45 15 28.75C15 28.05 15.55 27.5 16.25 27.5H18.75C19.45 27.5 20 28.05 20 28.75C20 29.45 19.45 30 18.75 30ZM18.75 25H16.25C15.55 25 15 24.45 15 23.75C15 23.05 15.55 22.5 16.25 22.5H18.75C19.45 22.5 20 23.05 20 23.75C20 24.45 19.45 25 18.75 25ZM26.25 35H23.75C23.05 35 22.5 34.45 22.5 33.75C22.5 33.05 23.05 32.5 23.75 32.5H26.25C26.95 32.5 27.5 33.05 27.5 33.75C27.5 34.45 26.95 35 26.25 35ZM26.25 30H23.75C23.05 30 22.5 29.45 22.5 28.75C22.5 28.05 23.05 27.5 23.75 27.5H26.25C26.95 27.5 27.5 28.05 27.5 28.75C27.5 29.45 26.95 30 26.25 30ZM26.25 25H23.75C23.05 25 22.5 24.45 22.5 23.75C22.5 23.05 23.05 22.5 23.75 22.5H26.25C26.95 22.5 27.5 23.05 27.5 23.75C27.5 24.45 26.95 25 26.25 25ZM33.75 35H31.25C30.55 35 30 34.45 30 33.75C30 33.05 30.55 32.5 31.25 32.5H33.75C34.45 32.5 35 33.05 35 33.75C35 34.45 34.45 35 33.75 35ZM33.75 30H31.25C30.55 30 30 29.45 30 28.75C30 28.05 30.55 27.5 31.25 27.5H33.75C34.45 27.5 35 28.05 35 28.75C35 29.45 34.45 30 33.75 30ZM33.75 25H31.25C30.55 25 30 24.45 30 23.75C30 23.05 30.55 22.5 31.25 22.5H33.75C34.45 22.5 35 23.05 35 23.75C35 24.45 34.45 25 33.75 25Z" fill="#fff"/>
</svg>
