<svg width="50" height="38" viewBox="0 0 50 38" fill="none" xmlns="http://www.w3.org/2000/svg">
<path d="M37.517 0C33.0832 0 28.3083 0.909504 25.0114 3.41064C21.7144 0.909504 16.9395 0 12.5057 0C9.20873 0 5.70714 0.500227 2.77399 1.79627C1.11414 2.54661 0 4.16098 0 6.00273V31.6507C0 34.6066 2.77399 36.7894 5.63893 36.0618C7.86721 35.4934 10.2319 35.2433 12.5057 35.2433C16.0527 35.2433 19.8272 35.8345 22.874 37.3352C24.2383 38.0173 25.7844 38.0173 27.126 37.3352C30.1728 35.8117 33.9472 35.2433 37.4943 35.2433C39.7681 35.2433 42.1328 35.4934 44.3611 36.0618C47.226 36.8122 50 34.6294 50 31.6507V6.00273C50 4.16098 48.8859 2.54661 47.226 1.79627C44.3156 0.500227 40.814 0 37.517 0ZM45.4752 28.945C45.4752 30.3774 44.1564 31.4234 42.7467 31.1733C41.0414 30.8549 39.2678 30.7185 37.517 30.7185C33.6517 30.7185 28.0809 32.1965 25.0114 34.1292V7.95816C28.0809 6.02547 33.6517 4.54752 37.517 4.54752C39.6089 4.54752 41.678 4.75216 43.6562 5.18418C44.7021 5.41155 45.4752 6.34379 45.4752 7.41246V28.945Z" fill="#fff"/>
</svg>
