<svg width="50" height="50" viewBox="0 0 50 50" fill="none" xmlns="http://www.w3.org/2000/svg">
<path d="M2.77778 27.7778H19.4444C20.9722 27.7778 22.2222 26.5278 22.2222 25V2.77778C22.2222 1.25 20.9722 0 19.4444 0H2.77778C1.25 0 0 1.25 0 2.77778V25C0 26.5278 1.25 27.7778 2.77778 27.7778ZM2.77778 50H19.4444C20.9722 50 22.2222 48.75 22.2222 47.2222V36.1111C22.2222 34.5833 20.9722 33.3333 19.4444 33.3333H2.77778C1.25 33.3333 0 34.5833 0 36.1111V47.2222C0 48.75 1.25 50 2.77778 50ZM30.5556 50H47.2222C48.75 50 50 48.75 50 47.2222V25C50 23.4722 48.75 22.2222 47.2222 22.2222H30.5556C29.0278 22.2222 27.7778 23.4722 27.7778 25V47.2222C27.7778 48.75 29.0278 50 30.5556 50ZM27.7778 2.77778V13.8889C27.7778 15.4167 29.0278 16.6667 30.5556 16.6667H47.2222C48.75 16.6667 50 15.4167 50 13.8889V2.77778C50 1.25 48.75 0 47.2222 0H30.5556C29.0278 0 27.7778 1.25 27.7778 2.77778Z" fill="#fff"/>
</svg>
