<svg width="50" height="40" viewBox="0 0 50 40" fill="none" xmlns="http://www.w3.org/2000/svg">
<path d="M50 8.75C50 3.925 38.8 0 25 0C11.2 0 0 3.925 0 8.75C0 13.275 9.875 17.025 22.5 17.45V27.5H18.375C16.325 27.5 14.5 28.75 13.725 30.65L11.25 36.825C10.675 38.35 11.775 40 13.425 40C14.375 40 15.225 39.425 15.575 38.55L18 32.5H32L34.425 38.55C34.775 39.425 35.625 40 36.575 40C38.225 40 39.35 38.35 38.725 36.825L36.25 30.65C35.5 28.75 33.65 27.5 31.625 27.5H27.5V17.45C40.125 17.025 50 13.275 50 8.75Z" fill="#fff"/>
</svg>
