<svg width="40" height="50" viewBox="0 0 40 50" fill="none" xmlns="http://www.w3.org/2000/svg">
<path d="M26.475 1.475C25.525 0.525 24.25 0 22.925 0H5C2.25 0 0 2.25 0 5V45C0 47.75 2.225 50 4.975 50H35C37.75 50 40 47.75 40 45V17.075C40 15.75 39.475 14.475 38.525 13.55L26.475 1.475ZM27.5 40H12.5C11.125 40 10 38.875 10 37.5C10 36.125 11.125 35 12.5 35H27.5C28.875 35 30 36.125 30 37.5C30 38.875 28.875 40 27.5 40ZM27.5 30H12.5C11.125 30 10 28.875 10 27.5C10 26.125 11.125 25 12.5 25H27.5C28.875 25 30 26.125 30 27.5C30 28.875 28.875 30 27.5 30ZM22.5 15V3.75L36.25 17.5H25C23.625 17.5 22.5 16.375 22.5 15Z" fill="#fff"/>
</svg>
