<svg width="45" height="50" viewBox="0 0 45 50" fill="none" xmlns="http://www.w3.org/2000/svg">
<path d="M40 5H37.5V2.5C37.5 1.125 36.375 0 35 0C33.625 0 32.5 1.125 32.5 2.5V5H12.5V2.5C12.5 1.125 11.375 0 10 0C8.625 0 7.5 1.125 7.5 2.5V5H5C2.225 5 0 7.25 0 10V45C0 47.75 2.25 50 5 50H40C42.75 50 45 47.75 45 45V10C45 7.25 42.75 5 40 5ZM22.5 12.5C26.65 12.5 30 15.85 30 20C30 24.15 26.65 27.5 22.5 27.5C18.35 27.5 15 24.15 15 20C15 15.85 18.35 12.5 22.5 12.5ZM37.5 42.5H7.5V40C7.5 35 17.5 32.25 22.5 32.25C27.5 32.25 37.5 35 37.5 40V42.5Z" fill="#fff"/>
</svg>
