<svg width="19" height="18" viewBox="0 0 19 18" fill="none" xmlns="http://www.w3.org/2000/svg">
<path d="M13.4791 11.4713H12.6891L12.4091 11.2013C13.6091 9.80133 14.2291 7.89133 13.8891 5.86133C13.4191 3.08133 11.0991 0.861329 8.29914 0.521329C4.06914 0.00132874 0.509141 3.56133 1.02914 7.79133C1.36914 10.5913 3.58914 12.9113 6.36914 13.3813C8.39914 13.7213 10.3091 13.1013 11.7091 11.9013L11.9791 12.1813V12.9713L16.2291 17.2213C16.6391 17.6313 17.3091 17.6313 17.7191 17.2213C18.1291 16.8113 18.1291 16.1413 17.7191 15.7313L13.4791 11.4713ZM7.47914 11.4713C4.98914 11.4713 2.97914 9.46133 2.97914 6.97133C2.97914 4.48133 4.98914 2.47133 7.47914 2.47133C9.96914 2.47133 11.9791 4.48133 11.9791 6.97133C11.9791 9.46133 9.96914 11.4713 7.47914 11.4713Z" fill="#F9F9F9" fill-opacity="0.5"/>
</svg>
