<svg width="50" height="39" viewBox="0 0 50 39" fill="none" xmlns="http://www.w3.org/2000/svg">
<path d="M32.4167 2.77778V15.2778C32.4167 16.8056 31.1667 18.0556 29.6389 18.0556H20.3889C18.8611 18.0556 17.6111 16.8056 17.6111 15.2778V2.77778C17.6111 1.25 18.8611 0 20.3889 0H29.6389C31.1667 0 32.4167 1.25 32.4167 2.77778ZM37.9722 18.0556H47.2222C48.75 18.0556 50 16.8056 50 15.2778V2.77778C50 1.25 48.75 0 47.2222 0H37.9722C36.4444 0 35.1944 1.25 35.1944 2.77778V15.2778C35.1944 16.8056 36.4167 18.0556 37.9722 18.0556ZM32.4167 36.1111V23.6111C32.4167 22.0833 31.1667 20.8333 29.6389 20.8333H20.3889C18.8611 20.8333 17.6111 22.0833 17.6111 23.6111V36.1111C17.6111 37.6389 18.8611 38.8889 20.3889 38.8889H29.6389C31.1667 38.8889 32.4167 37.6389 32.4167 36.1111ZM35.1944 23.6111V36.1111C35.1944 37.6389 36.4444 38.8889 37.9722 38.8889H47.2222C48.75 38.8889 50 37.6389 50 36.1111V23.6111C50 22.0833 48.75 20.8333 47.2222 20.8333H37.9722C36.4167 20.8333 35.1944 22.0833 35.1944 23.6111ZM12.0278 20.8333H2.77778C1.25 20.8333 0 22.0833 0 23.6111V36.1111C0 37.6389 1.25 38.8889 2.77778 38.8889H12.0278C13.5556 38.8889 14.8056 37.6389 14.8056 36.1111V23.6111C14.8056 22.0833 13.5833 20.8333 12.0278 20.8333ZM14.8056 15.2778V2.77778C14.8056 1.25 13.5556 0 12.0278 0H2.77778C1.25 0 0 1.25 0 2.77778V15.2778C0 16.8056 1.25 18.0556 2.77778 18.0556H12.0278C13.5833 18.0556 14.8056 16.8056 14.8056 15.2778Z" fill="#fff"/>
</svg>
