<svg width="40" height="50" viewBox="0 0 40 50" fill="none" xmlns="http://www.w3.org/2000/svg">
<path d="M38.525 13.525L26.45 1.45C25.525 0.525 24.25 0 22.925 0H5C2.25 0 0.0250006 2.25 0.0250006 5L0 45C0 47.75 2.225 50 4.975 50H35C37.75 50 40 47.75 40 45V17.075C40 15.75 39.475 14.475 38.525 13.525ZM25 27.5C26.375 27.5 27.5 28.625 27.5 30V37.5C27.5 38.875 26.375 40 25 40H22.5C22.5 41.375 21.375 42.5 20 42.5C18.625 42.5 17.5 41.375 17.5 40H15C13.625 40 12.5 38.875 12.5 37.5C12.5 36.125 13.625 35 15 35H22.5V32.5H15C13.625 32.5 12.5 31.375 12.5 30V22.5C12.5 21.125 13.625 20 15 20H17.5C17.5 18.625 18.625 17.5 20 17.5C21.375 17.5 22.5 18.625 22.5 20H25C26.375 20 27.5 21.125 27.5 22.5C27.5 23.875 26.375 25 25 25H17.5V27.5H25ZM25 15C23.625 15 22.5 13.875 22.5 12.5V3.75L33.75 15H25Z" fill="#fff"/>
</svg>
