<svg width="50" height="37" viewBox="0 0 50 37" fill="none" xmlns="http://www.w3.org/2000/svg">
<path fill-rule="evenodd" clip-rule="evenodd" d="M18.1818 20.4546C12.1136 20.4546 0 23.5 0 29.5455V34.091C0 35.341 1.02273 36.3637 2.27273 36.3637H34.0909C35.3409 36.3637 36.3636 35.341 36.3636 34.091V29.5455C36.3636 23.5 24.25 20.4546 18.1818 20.4546Z" fill="#fff"/>
<path fill-rule="evenodd" clip-rule="evenodd" d="M35.6133 20.7498C38.7269 22.8634 40.9087 25.727 40.9087 29.5452V36.3634H47.7269C48.9769 36.3634 49.9996 35.3407 49.9996 34.0907V29.5452C49.9996 24.5907 41.886 21.6588 35.6133 20.7498Z" fill="#fff"/>
<path d="M18.1817 18.1818C23.2025 18.1818 27.2726 14.1117 27.2726 9.09091C27.2726 4.07014 23.2025 0 18.1817 0C13.161 0 9.09082 4.07014 9.09082 9.09091C9.09082 14.1117 13.161 18.1818 18.1817 18.1818Z" fill="#fff"/>
<path fill-rule="evenodd" clip-rule="evenodd" d="M31.8176 18.1818C36.8404 18.1818 40.9086 14.1136 40.9086 9.09091C40.9086 4.06818 36.8404 0 31.8176 0C30.7495 0 29.7495 0.227272 28.7949 0.545454C30.6813 2.88636 31.8176 5.86364 31.8176 9.09091C31.8176 12.3182 30.6813 15.2955 28.7949 17.6364C29.7495 17.9545 30.7495 18.1818 31.8176 18.1818Z" fill="#fff"/>
</svg>
