<svg width="50" height="50" viewBox="0 0 50 50" fill="none" xmlns="http://www.w3.org/2000/svg">
<path d="M25 0C11.2 0 0 11.2 0 25C0 38.8 11.2 50 25 50C38.8 50 50 38.8 50 25C50 11.2 38.8 0 25 0ZM27.2 39.4V40.3C27.2 41.5 26.225 42.5 25 42.5C23.8 42.5 22.8 41.525 22.8 40.3V39.25C21.225 38.875 17.975 37.725 16.075 34C15.5 32.9 16.05 31.525 17.2 31.05L17.375 30.975C18.4 30.55 19.55 30.975 20.075 31.95C20.875 33.475 22.45 35.375 25.375 35.375C27.7 35.375 30.325 34.175 30.325 31.35C30.325 28.95 28.575 27.7 24.625 26.275C21.875 25.3 16.25 23.7 16.25 18C16.25 17.75 16.275 12 22.8 10.6V9.7C22.8 8.475 23.8 7.5 25 7.5C26.2 7.5 27.2 8.475 27.2 9.7V10.625C29.875 11.1 31.575 12.525 32.6 13.875C33.45 14.975 33 16.575 31.7 17.125C30.8 17.5 29.75 17.2 29.15 16.425C28.45 15.475 27.2 14.5 25.15 14.5C23.4 14.5 20.625 15.425 20.625 17.975C20.625 20.35 22.775 21.25 27.225 22.725C33.225 24.8 34.75 27.85 34.75 31.35C34.75 37.925 28.5 39.175 27.2 39.4Z" fill="#fff"/>
</svg>
